<?xml version="1.0" encoding="UTF-8" standalone="no"?>
<svg
   xmlns:dc="http://purl.org/dc/elements/1.1/"
   xmlns:cc="http://creativecommons.org/ns#"
   xmlns:rdf="http://www.w3.org/1999/02/22-rdf-syntax-ns#"
   xmlns:svg="http://www.w3.org/2000/svg"
   xmlns="http://www.w3.org/2000/svg"
   xmlns:sodipodi="http://sodipodi.sourceforge.net/DTD/sodipodi-0.dtd"
   xmlns:inkscape="http://www.inkscape.org/namespaces/inkscape"
   xml:space="preserve"
   shape-rendering="geometricPrecision"
   text-rendering="geometricPrecision"
   image-rendering="optimizeQuality"
   fill-rule="evenodd"
   clip-rule="evenodd"
   version="1.1"
   id="svg193"
   sodipodi:docname="RR Logo Vectorized - final.svg"
   inkscape:version="1.0 (4035a4fb49, 2020-05-01)"><metadata
   id="metadata199"><rdf:RDF><cc:Work
       rdf:about=""><dc:format>image/svg+xml</dc:format><dc:type
         rdf:resource="http://purl.org/dc/dcmitype/StillImage" /></cc:Work></rdf:RDF></metadata><defs
   id="defs197" /><sodipodi:namedview
   inkscape:document-rotation="0"
   pagecolor="#ffffff"
   bordercolor="#666666"
   borderopacity="1"
   objecttolerance="10"
   gridtolerance="10"
   guidetolerance="10"
   inkscape:pageopacity="0"
   inkscape:pageshadow="2"
   inkscape:window-width="1904"
   inkscape:window-height="1041"
   id="namedview195"
   showgrid="false"
   inkscape:zoom="2.8284271"
   inkscape:cx="289.34807"
   inkscape:cy="108.36762"
   inkscape:window-x="0"
   inkscape:window-y="0"
   inkscape:window-maximized="0"
   inkscape:current-layer="Layer_1" />
 <g
   id="Layer_1">
  <metadata
   id="FutureCorpID_Layer" />

  
  
  
  
  
  
  
  
  
  
  
  
  
 <g
   id="g12"><path
     sodipodi:nodetypes="cccscscccccccccccccc"
     id="path166"
     d="M 178.78557,2.1109739e-5 C 191.66083,-0.01217889 210.9996,5.2655211 221.34028,11.101471 c 19.79862,11.48816 26.57743,21.51572 34.69263,34.07574 5.18359,8.56467 12.47997,26.75153 13.07527,43.98402 0.80148,23.201029 0.0809,27.891339 -5.06756,44.836839 -5.25218,15.1973 -10.72073,23.8175 -20.08446,33.46084 -11.6301,11.97737 -24.92803,19.78197 -39.82633,22.70824 l 69.19491,97.56087 h -71.19335 l -102.10691,-145.653 h 69.32 c 5.27952,-0.11939 8.34685,-0.20461 12.26375,-1.10251 7.62,-1.13 13.9278,-6.88492 17.6778,-11.86492 2.77,-3.68 5.41,-9.76 6.99,-16.09 1.89,-7.57 1.45,-17.819999 -1.05,-24.239999 -4.1,-10.54 -12.57,-18.96 -23.4,-23.23 -7.02,-2.77 -9.85,-3.11957 -25.43,-3.12957 H 44.306029 L 0,2.1109739e-5 Z"
     fill="#d40228" /><path
     style="stroke-width:1.0001"
     fill="#d40228"
     d="M 361.52674,2.1109739e-5 C 374.4279,-0.01217889 393.72965,5.2655211 404.03058,11.101471 c 19.8018,11.48816 26.60241,21.51572 34.70314,34.07574 5.20047,8.56467 12.50114,26.75153 13.10119,43.98402 0.80007,23.201029 0.10001,27.891339 -5.10046,44.836839 -5.20047,15.1973 -10.70097,23.8175 -20.00181,33.46084 -11.70106,11.97737 -25.00227,19.78197 -39.90361,22.70824 l 69.20626,97.56087 H 384.82884 L 282.7196,142.07502 h 69.30628 c 5.30048,-0.11939 8.40076,-0.20461 12.30111,-1.10251 7.60069,-1.13 13.90126,-6.88492 17.7016,-11.86492 2.80025,-3.68 5.40049,-9.76 7.00063,-16.09 1.90018,-7.57 1.40013,-17.819999 -1.10009,-24.239999 -4.10038,-10.54 -12.50114,-18.96 -23.40212,-23.23 -7.00064,-2.77 -9.80089,-3.11957 -25.4023,-3.12957 H 227.01456 L 182.71055,2.1109739e-5 Z"
     id="path166-2"
     sodipodi:nodetypes="cccscscccccccccccccc" /></g></g>
</svg>
